<svg id="Layer_1" data-name="Layer 1" xmlns="http://www.w3.org/2000/svg" width="227.55" height="70.96" viewBox="0 0 227.55 70.96"><defs><style>.cls-1{fill:#fff;}.cls-2{fill:#009245;}.cls-3{fill:#007745;}</style></defs><title>logo-fransk</title><path class="cls-1" d="M31.6,30.75c0,.63,0,1.17-.05,1.6a30.56,30.56,0,0,0-.15,3.55l.05,3.55Q25,39.2,8.3,39.2H6.2c-1.47,0-2.2-.14-2.2-.42s.23-.43.7-.43c1.67,0,2.73-.27,3.2-.7q.45-.39.45-2.4V8.2a4.34,4.34,0,0,0-.3-2.1,2.17,2.17,0,0,0-1.88-.7H4.91c-.37,0-.56-.12-.56-.37s.23-.38.7-.38H19.1c.33,0,.5.13.5.4s-.43.45-1.3.45c-1.23,0-2,.15-2.18.45s-.32,1.62-.32,4V21.8q0,3.64.2,16.35c.63,0,1.35.05,2.15.05a43,43,0,0,0,7.25-.4,5.61,5.61,0,0,0,4.3-3.2,18.06,18.06,0,0,0,1.1-4.15c.1-.53.25-.8.45-.8S31.6,30,31.6,30.75Z" transform="translate(-4 -4)"/><path class="cls-1" d="M53.25,15a3.3,3.3,0,0,1-1.18,2.65,4.62,4.62,0,0,1-3.12,1A4.81,4.81,0,0,1,45.07,17a6.9,6.9,0,0,1-1.42-4.59A7.16,7.16,0,0,1,47.2,5.7a8.74,8.74,0,0,1,4.25-1.4c.23,0,.35.08.35.25s-.13.31-.4.35a18.15,18.15,0,0,0-3.15,1.19,5,5,0,0,0-2.55,4.63,4.13,4.13,0,0,0,1.95,3.88c0-1.9.83-2.85,2.5-2.85a3,3,0,0,1,2.25.9A3.26,3.26,0,0,1,53.25,15Z" transform="translate(-4 -4)"/><path class="cls-1" d="M89.35,28.6a10.47,10.47,0,0,1-4.2,8.65,11.48,11.48,0,0,1-7.25,2.6,11.19,11.19,0,0,1-8.13-3.37,10.84,10.84,0,0,1-3.42-8,11,11,0,0,1,3.42-8.17A11.37,11.37,0,0,1,78.05,17a10.68,10.68,0,0,1,8,3.43A11.36,11.36,0,0,1,89.35,28.6Zm-7.55,0c0-4.13-.28-7-.85-8.5q-.95-2.55-3-2.55c-1.29,0-2.3.89-3,2.68a20,20,0,0,0-1.09,7.37q0,6.56,1.29,9.3A3.22,3.22,0,0,0,78,39.15c1.56,0,2.59-.93,3.08-2.8A31.9,31.9,0,0,0,81.8,28.65Z" transform="translate(-4 -4)"/><path class="cls-1" d="M110.75,20.7a3.42,3.42,0,0,1-.85,2.38,2.87,2.87,0,0,1-2.2.92c-1.8,0-2.7-.83-2.7-2.5a2.75,2.75,0,0,1,.65-1.7.61.61,0,0,0,.15-.35c0-.3-.22-.45-.64-.45-1.12,0-2,.88-2.57,2.64q-.5,1.5-.49,7.33v8a1.3,1.3,0,0,0,1.35,1.45c.53,0,1.16,0,1.9,0,.36,0,.55.15.55.35s-.15.4-.45.4H92.35c-.37,0-.55-.11-.55-.32s.23-.33.7-.33A4.85,4.85,0,0,0,95,38.18c.29-.25.43-1,.43-2.22l-.05-13.47a4.12,4.12,0,0,0-.48-2.34,2.91,2.91,0,0,0-2.12-.8c-.87-.06-1.36-.11-1.48-.14s-.17-.14-.17-.33.13-.28.4-.28h1.85a24.59,24.59,0,0,0,8.3-1.6,9.87,9.87,0,0,1,.25,2.3v2.1A8.85,8.85,0,0,1,104,18a4.28,4.28,0,0,1,2.93-1,3.79,3.79,0,0,1,2.77,1.05A3.54,3.54,0,0,1,110.75,20.7Z" transform="translate(-4 -4)"/><path class="cls-1" d="M126,38.9c0,.23-.15.35-.45.35H113c-.4,0-.6-.11-.6-.32s.38-.25,1.15-.28c1.13,0,1.8-.16,2-.38a3.7,3.7,0,0,0,.3-2V21.86a4.45,4.45,0,0,0-.33-2.28c-.21-.25-.87-.38-2-.38a8.28,8.28,0,0,1-1.23-.05c-.11,0-.17-.15-.17-.35s.25-.35.75-.35a24.62,24.62,0,0,0,9.4-1.7c.06.4.15,1.5.25,3.3V35.8c0,1.37.12,2.17.37,2.4a5.19,5.19,0,0,0,2.58.35C125.81,38.55,126,38.67,126,38.9ZM122.5,7.2a3.36,3.36,0,0,1-1,2.4,3.17,3.17,0,0,1-2.36,1,3.32,3.32,0,0,1-2.4-.95,3.2,3.2,0,0,1-1-2.4,3,3,0,0,1,1-2.3,3.54,3.54,0,0,1,2.51-.9,3.17,3.17,0,0,1,2.3.9A3,3,0,0,1,122.5,7.2Z" transform="translate(-4 -4)"/><path class="cls-1" d="M153.85,20.2c0,1.77-.85,2.65-2.55,2.65S149,22.13,149,20.7a2.17,2.17,0,0,1,.17-.8,2.07,2.07,0,0,0,.18-.65c0-.57-.3-.85-.9-.85a1.59,1.59,0,0,0-1.13.53,1.61,1.61,0,0,0-.52,1.17,3.05,3.05,0,0,0,.4,1.1,7.63,7.63,0,0,1,.95,3.45,7.49,7.49,0,0,1-3.44,6.25,10.78,10.78,0,0,1-6.48,1.9,12.66,12.66,0,0,1-3.69-.64,3.36,3.36,0,0,0-1-.16,2.39,2.39,0,0,0-1.62.58,1.83,1.83,0,0,0-.67,1.45c0,1.21.94,1.82,2.84,1.82a49.7,49.7,0,0,0,6.38-.6,14.09,14.09,0,0,1,2-.15,7.42,7.42,0,0,1,5.18,1.68,6,6,0,0,1,1.85,4.72,9.31,9.31,0,0,1-3.78,7.8q-3.78,2.89-10.17,2.9a13.83,13.83,0,0,1-7.13-1.58,4.83,4.83,0,0,1-2.62-4.33q0-4.15,6.1-5c-2.44-1-3.65-2.43-3.65-4.4,0-2.67,1.56-4.49,4.7-5.46q-4.6-2.36-4.6-6.61a7,7,0,0,1,2.92-5.66,11.21,11.21,0,0,1,7.13-2.3q4.84,0,7.55,2.7a5.57,5.57,0,0,1,4.5-2.45C152.71,17.1,153.85,18.13,153.85,20.2ZM146.9,44.4q0-3.7-4.35-3.7a35.56,35.56,0,0,0-5.5.55,24.65,24.65,0,0,1-3.65.4h-.75a6.34,6.34,0,0,0-1.4,4.2q0,5.3,6.9,5.3a9.87,9.87,0,0,0,6.22-1.95A5.88,5.88,0,0,0,146.9,44.4Zm-4.85-19.27q0-7.64-3.65-7.63c-2.44,0-3.65,2.31-3.65,6.92a14.33,14.33,0,0,0,.9,6,3.09,3.09,0,0,0,3,1.81,2.68,2.68,0,0,0,2.67-1.53A14.52,14.52,0,0,0,142.05,25.13Z" transform="translate(-4 -4)"/><path class="cls-1" d="M166.4,38.9c0,.23-.15.35-.45.35H153.34c-.39,0-.59-.11-.59-.32s.38-.25,1.15-.28c1.13,0,1.8-.16,2-.38a3.7,3.7,0,0,0,.3-2V21.86a4.45,4.45,0,0,0-.33-2.28c-.22-.25-.87-.38-2-.38a8.28,8.28,0,0,1-1.23-.05c-.12,0-.17-.15-.17-.35s.25-.35.75-.35a24.62,24.62,0,0,0,9.4-1.7c.06.4.15,1.5.25,3.3V35.8c0,1.37.12,2.17.37,2.4a5.19,5.19,0,0,0,2.58.35C166.21,38.55,166.4,38.67,166.4,38.9ZM162.9,7.2a3.33,3.33,0,0,1-1,2.4,3.13,3.13,0,0,1-2.35,1,3.32,3.32,0,0,1-2.4-.95,3.2,3.2,0,0,1-1-2.4,3,3,0,0,1,1-2.3,3.54,3.54,0,0,1,2.5-.9A3.19,3.19,0,0,1,162,5,3,3,0,0,1,162.9,7.2Z" transform="translate(-4 -4)"/><path class="cls-1" d="M194.15,38.9c0,.27-.42.4-1.25.4H182.2c-.47,0-.7-.12-.7-.37s.19-.33.58-.33h.4c.85,0,1.35-.11,1.49-.33A5.77,5.77,0,0,0,184.2,36v-9.7c0-3.59-.23-5.73-.69-6.44a2.35,2.35,0,0,0-2.12-.9,3.48,3.48,0,0,0-2.51.95,3.16,3.16,0,0,0-1,2.39V37.46a1,1,0,0,0,.42.77,5,5,0,0,0,1.63.22c.26,0,.4.1.4.3s-.12.32-.35.35-1.07,0-2.5,0-2.62,0-3.55.05c-1.84.07-3.7.1-5.6.1-.4,0-.6-.12-.6-.35s.5-.4,1.52-.4,1.61-.2,1.78-.6l.15-.69V25.79c0-3.23,0-4.91-.1-5Q171,20,169.75,20h-1.7c-.54,0-.8-.11-.8-.33s.19-.34.59-.37A18.15,18.15,0,0,0,176.75,17a1.67,1.67,0,0,1,.55-.2c.26,0,.4.27.4.8V20.4A8.2,8.2,0,0,1,184.5,17q4.29,0,5.6,3a8.72,8.72,0,0,1,.67,2.8c.08,1,.13,3.17.13,6.4V36.4a3.66,3.66,0,0,0,.25,1.83q.24.27,1.62.27C193.69,38.5,194.15,38.63,194.15,38.9Z" transform="translate(-4 -4)"/><path class="cls-1" d="M217.8,36.55c0,.28-.27.65-.8,1.12a7.54,7.54,0,0,1-5.3,2,4.31,4.31,0,0,1-3-.86,5.07,5.07,0,0,1-1.22-3.09q-2.25,4.09-6.15,4.1a4.65,4.65,0,0,1-3.48-1.35,4.8,4.8,0,0,1-1.32-3.5q0-6.3,10.8-7.45V26.45A30.57,30.57,0,0,0,207,20.3l-.05-.25a3.28,3.28,0,0,0-3.55-2.5,3.69,3.69,0,0,0-2.65.95,2.64,2.64,0,0,0-1,1.85q0,.49,1.2.6c1.2.1,1.8.83,1.8,2.2a2.48,2.48,0,0,1-2.6,2.55,3.34,3.34,0,0,1-2.38-.87,2.93,2.93,0,0,1-.92-2.23A5,5,0,0,1,199,18.7,8.63,8.63,0,0,1,204.65,17q5.19,0,7.25,1.85,1.65,1.54,1.65,5.4v8.55c0,1.67,0,2.63,0,2.9.16,1.4.65,2.1,1.45,2.1a3.48,3.48,0,0,0,2.1-1.2.65.65,0,0,1,.4-.25A.23.23,0,0,1,217.8,36.55ZM207.35,30.6V28.15c-3.24.63-4.85,2.47-4.85,5.5,0,2.33.8,3.5,2.4,3.5a2,2,0,0,0,1.9-1.5A16.45,16.45,0,0,0,207.35,30.6Z" transform="translate(-4 -4)"/><path class="cls-1" d="M231.55,38.88c0,.24-.64.37-1.9.37-.3,0-1.23,0-2.79-.1-.8,0-1.58,0-2.34,0s-2.09,0-4.08.1l-1.5,0c-.73,0-1.09-.08-1.09-.35s.38-.38,1.15-.35c1.16,0,1.84-.08,2-.35a8.34,8.34,0,0,0,.28-3V8.9c0-1.13-.12-1.81-.36-2a3.8,3.8,0,0,0-2.08-.33c-.84,0-1.26-.12-1.26-.37s.43-.44,1.29-.48A25.94,25.94,0,0,0,228,4V34a23.19,23.19,0,0,0,.17,4c.12.38.53.55,1.23.52h1.5C231.33,38.5,231.55,38.62,231.55,38.88Z" transform="translate(-4 -4)"/><path class="cls-1" d="M147.21,67.34c-12.2,0-28.84-4.42-45-8.72C87.52,54.71,73.64,51,64.41,51,43.75,51,9,64.84,8.6,65a.5.5,0,0,1-.37-.93c.35-.14,35.33-14,56.18-14,9.36,0,23.3,3.7,38.05,7.63,18.55,4.93,37.72,10,49.88,8.37,10.48-1.43,24.09-6.33,37.25-11.08,14.82-5.35,28.82-10.4,38.79-10.92a.5.5,0,0,1,.53.47.51.51,0,0,1-.47.53c-9.83.51-23.76,5.54-38.51,10.86-13.21,4.76-26.87,9.69-37.45,11.13A38.21,38.21,0,0,1,147.21,67.34Z" transform="translate(-4 -4)"/><path class="cls-2" d="M31.42,51.19c-1.36,4.05-6.61,4.93-8.54,3.36a5.57,5.57,0,0,1,1.57-9,27.31,27.31,0,0,1,9.31-2.73A82.87,82.87,0,0,1,31.42,51.19Z" transform="translate(-4 -4)"/><rect class="cls-3" x="25.39" y="45.4" width="1.05" height="9.03" rx="0.5" transform="translate(38.46 -7.84) rotate(44.55)"/><path class="cls-2" d="M56,55.11c2.47-3.49,7.75-2.83,9.15-.77A5.58,5.58,0,0,1,61,62.55a27.35,27.35,0,0,1-9.7,0A84.49,84.49,0,0,1,56,55.11Z" transform="translate(-4 -4)"/><rect class="cls-3" x="60.37" y="53.4" width="1.05" height="9.03" rx="0.5" transform="translate(35.47 135.17) rotate(-118.79)"/><path class="cls-2" d="M101.89,53.68c-2.87,3.16-8,1.86-9.17-.35a5.58,5.58,0,0,1,5.06-7.66,27.64,27.64,0,0,1,9.63,1.24A84.7,84.7,0,0,1,101.89,53.68Z" transform="translate(-4 -4)"/><rect class="cls-3" x="96.84" y="45.79" width="1.05" height="9.03" rx="0.5" transform="translate(103.86 -62.78) rotate(68.18)"/><path class="cls-2" d="M116.11,67c2.73-3.29,8-2.23,9.18-.07a5.58,5.58,0,0,1-4.71,7.88A27.37,27.37,0,0,1,110.9,74,85.9,85.9,0,0,1,116.11,67Z" transform="translate(-4 -4)"/><rect class="cls-3" x="120.26" y="65.66" width="1.05" height="9.03" rx="0.5" transform="translate(102.69 205.16) rotate(-114.37)"/><path class="cls-2" d="M163.16,59.28c-.88,4.18-6,5.67-8.09,4.34a5.58,5.58,0,0,1,.5-9.17,27.46,27.46,0,0,1,8.93-3.8A81.55,81.55,0,0,1,163.16,59.28Z" transform="translate(-4 -4)"/><rect class="cls-3" x="157.02" y="54.14" width="1.05" height="9.03" rx="0.5" transform="translate(65.13 -88.33) rotate(37.85)"/><path class="cls-2" d="M189.94,61.42c1.05-4.14,6.22-5.41,8.26-4a5.57,5.57,0,0,1-.88,9.13A27.45,27.45,0,0,1,188.24,70,82.43,82.43,0,0,1,189.94,61.42Z" transform="translate(-4 -4)"/><rect class="cls-3" x="195" y="57.77" width="1.05" height="9.03" rx="0.5" transform="translate(300.55 232.13) rotate(-139.76)"/></svg>
